# xmcd
#
# Track frame offsets:
#	150
#	61880
#	77535
#	101327
#	112629
#	123962
#	145702
#	168760
#	192257
#	232115
# Disc length: 3475 seconds
# Revision: 1
# Processed by: cddbd v1.5.2PL0 Copyright (c) Steve Scherf et al.
#
# Submitted via: libkcddb 0.31
#
DISCID=700d910a
DTITLE=Raphaël Fumet - Cantate Biblique - Trio pour flûtes - Diptyque Baroque - Interpolaire - Quatuor pour flûtes - Lacrymosa - Ode concertante
DYEAR=1995
DGENRE=Flûte
TTITLE0=Cantate Biblique
TTITLE1=Trio pour flûtes - Andante
TTITLE2=Trio pour flûtes - Allegretto
TTITLE3=Diptyque Baroque - Andante
TTITLE4=Diptyque Baroque - Fuguette
TTITLE5=Interpolaire
TTITLE6=Quatuor pour flûtes - Scherzando
TTITLE7=Lacrymosa
TTITLE8=Ode concertante - Lent
TTITLE9=Ode concertante - Animé
EXTD=
EXTT0=
EXTT1=
EXTT2=
EXTT3=
EXTT4=
EXTT5=
EXTT6=
EXTT7=
EXTT8=
EXTT9=
PLAYORDER=
